<svg width="37" height="37" viewBox="0 0 37 37" fill="none" xmlns="http://www.w3.org/2000/svg">
<path fill-rule="evenodd" clip-rule="evenodd" d="M5.34106 31.6589C7.59877 33.9167 11.2325 33.9167 18.5 33.9167C25.7674 33.9167 29.4013 33.9167 31.6589 31.6589C33.9167 29.4013 33.9167 25.7674 33.9167 18.5C33.9167 11.2325 33.9167 7.59877 31.6589 5.34106C29.4013 3.08334 25.7674 3.08334 18.5 3.08334C11.2325 3.08334 7.59877 3.08334 5.34106 5.34106C3.08334 7.59877 3.08334 11.2325 3.08334 18.5C3.08334 25.7674 3.08334 29.4013 5.34106 31.6589ZM22.7396 24.6667C22.7396 25.3052 22.2219 25.8229 21.5833 25.8229H15.4167C14.7781 25.8229 14.2604 25.3052 14.2604 24.6667C14.2604 24.0281 14.7781 23.5104 15.4167 23.5104H21.5833C22.2219 23.5104 22.7396 24.0281 22.7396 24.6667ZM24.6667 19.6563C25.3052 19.6563 25.8229 19.1386 25.8229 18.5C25.8229 17.8614 25.3052 17.3438 24.6667 17.3438H12.3333C11.6948 17.3438 11.1771 17.8614 11.1771 18.5C11.1771 19.1386 11.6948 19.6563 12.3333 19.6563H24.6667ZM28.9062 12.3333C28.9062 12.9719 28.3886 13.4896 27.75 13.4896H9.25C8.61143 13.4896 8.09375 12.9719 8.09375 12.3333C8.09375 11.6948 8.61143 11.1771 9.25 11.1771H27.75C28.3886 11.1771 28.9062 11.6948 28.9062 12.3333Z" fill="black"/>
</svg>
